<svg width="400" height="400" viewBox="0 0 400 400" fill="none" xmlns="http://www.w3.org/2000/svg">
<rect width="400" height="400" fill="white"/>
<path d="M34.2898 109.636H34.946L31.7642 128.807H31.8438L48.8665 109.636H49.6023L46.2216 130H45.5653L48.7472 110.83H48.6676L31.6449 130H30.9091L34.2898 109.636ZM51.7575 126.102H52.3938C52.2679 127.163 52.533 128.025 53.1893 128.688C53.8522 129.35 54.8531 129.682 56.1921 129.682C57.5974 129.682 58.7807 129.327 59.7418 128.618C60.703 127.909 61.2764 126.997 61.462 125.884C61.5747 125.187 61.525 124.581 61.3129 124.064C61.1007 123.547 60.7859 123.143 60.3683 122.851C59.9506 122.553 59.4866 122.39 58.9762 122.364H56.2319L56.3313 121.727H58.9961C59.8844 121.568 60.6235 121.25 61.2134 120.773C61.8034 120.295 62.1713 119.619 62.3171 118.744C62.4961 117.657 62.2773 116.789 61.6609 116.139C61.0444 115.49 60.1429 115.165 58.9563 115.165C57.73 115.165 56.6495 115.5 55.7148 116.169C54.7802 116.832 54.1969 117.69 53.9648 118.744H53.3285C53.5075 117.902 53.8687 117.167 54.4123 116.537C54.9558 115.901 55.622 115.407 56.4109 115.055C57.1997 114.704 58.0482 114.528 58.9563 114.528C59.9042 114.528 60.6997 114.711 61.3427 115.075C61.9857 115.44 62.4464 115.94 62.7248 116.577C63.0098 117.213 63.0861 117.936 62.9535 118.744C62.8209 119.546 62.4994 120.229 61.989 120.793C61.4786 121.349 60.8588 121.734 60.1296 121.946L60.1097 122.085C60.5671 122.185 60.9615 122.413 61.293 122.771C61.631 123.123 61.8763 123.567 62.0288 124.104C62.1812 124.641 62.2044 125.234 62.0984 125.884C61.9592 126.732 61.6211 127.491 61.0842 128.161C60.5539 128.83 59.8711 129.357 59.0359 129.741C58.2006 130.126 57.2527 130.318 56.1921 130.318C55.1912 130.318 54.3394 130.143 53.6367 129.791C52.9341 129.44 52.417 128.949 52.0856 128.32C51.7608 127.683 51.6514 126.944 51.7575 126.102ZM71.087 130.318C69.8806 130.318 68.8531 129.97 68.0046 129.274C67.1628 128.578 66.5595 127.627 66.195 126.42C65.837 125.214 65.784 123.848 66.0359 122.324C66.2878 120.839 66.7849 119.507 67.5273 118.327C68.2764 117.14 69.1779 116.205 70.2319 115.523C71.2925 114.833 72.4128 114.489 73.5927 114.489C74.8124 114.489 75.8432 114.84 76.685 115.543C77.5335 116.245 78.1367 117.2 78.4947 118.406C78.8593 119.613 78.9222 120.972 78.6836 122.483C78.4317 123.968 77.9312 125.304 77.1822 126.49C76.4331 127.67 75.5283 128.605 74.4677 129.294C73.4071 129.977 72.2802 130.318 71.087 130.318ZM71.087 129.682C72.1874 129.682 73.2248 129.364 74.1992 128.727C75.1737 128.084 76.0022 127.209 76.685 126.102C77.3678 124.989 77.8219 123.729 78.0472 122.324C78.2726 120.958 78.2295 119.732 77.918 118.645C77.6064 117.558 77.0794 116.699 76.337 116.07C75.5946 115.44 74.6931 115.125 73.6325 115.125C72.5453 115.125 71.5146 115.45 70.5401 116.099C69.5657 116.742 68.7338 117.621 68.0444 118.734C67.355 119.841 66.8976 121.091 66.6722 122.483C66.4336 123.848 66.4701 125.075 66.7816 126.162C67.0998 127.249 67.6301 128.107 68.3725 128.737C69.1216 129.367 70.0264 129.682 71.087 129.682ZM95.7138 109L96.0121 109.497C95.6276 109.822 95.1669 110.027 94.63 110.114C94.0997 110.193 93.5329 110.226 92.9297 110.213C92.3331 110.2 91.7431 110.213 91.1598 110.253C89.7479 110.332 88.5348 110.74 87.5206 111.476C86.513 112.205 85.6778 113.226 85.0149 114.538C84.352 115.844 83.835 117.405 83.4638 119.222H83.6428C84.352 117.995 85.2237 117.021 86.2578 116.298C87.2985 115.569 88.4287 115.205 89.6484 115.205C90.7952 115.205 91.7862 115.506 92.6214 116.109C93.4633 116.713 94.0665 117.588 94.4311 118.734C94.8023 119.881 94.852 121.27 94.5803 122.901C94.335 124.385 93.8842 125.685 93.228 126.798C92.5784 127.912 91.7498 128.777 90.7422 129.393C89.7412 130.01 88.5945 130.318 87.3018 130.318C86.0755 130.318 85.0315 130.02 84.1697 129.423C83.308 128.82 82.6948 127.958 82.3303 126.838C81.9657 125.711 81.9126 124.366 82.1712 122.801L82.4297 121.25C83.0661 117.379 84.0736 114.505 85.4524 112.629C86.8312 110.753 88.7138 109.756 91.1001 109.636C91.7299 109.603 92.3232 109.593 92.88 109.607C93.4434 109.613 93.9605 109.583 94.4311 109.517C94.9084 109.444 95.3359 109.272 95.7138 109ZM87.3217 129.682C88.5017 129.682 89.549 129.397 90.4638 128.827C91.3786 128.25 92.1342 127.438 92.7308 126.391C93.334 125.343 93.7517 124.114 93.9837 122.702C94.2223 121.257 94.1792 120.024 93.8544 119.003C93.5296 117.975 92.9993 117.193 92.2635 116.656C91.5343 116.113 90.6759 115.841 89.6882 115.841C88.7801 115.841 87.9349 116.053 87.1527 116.477C86.3705 116.895 85.6745 117.455 85.0646 118.158C84.4614 118.854 83.9609 119.623 83.5632 120.464C83.1721 121.306 82.907 122.152 82.7678 123C82.4297 125.095 82.6948 126.732 83.5632 127.912C84.4316 129.092 85.6844 129.682 87.3217 129.682ZM96.9542 135.727L100.454 114.727H101.091L100.454 118.625H100.534C100.945 117.777 101.445 117.044 102.035 116.428C102.632 115.804 103.298 115.327 104.034 114.996C104.776 114.658 105.558 114.489 106.38 114.489C107.587 114.489 108.571 114.833 109.333 115.523C110.102 116.212 110.626 117.153 110.904 118.347C111.19 119.54 111.206 120.892 110.954 122.403C110.702 123.902 110.232 125.247 109.542 126.44C108.859 127.634 108.021 128.578 107.027 129.274C106.039 129.97 104.949 130.318 103.755 130.318C102.947 130.318 102.227 130.152 101.598 129.821C100.968 129.483 100.454 129.006 100.056 128.389C99.6587 127.766 99.3936 127.03 99.261 126.182H99.1815L97.5906 135.727H96.9542ZM99.8178 122.403C99.5924 123.782 99.5924 125.022 99.8178 126.122C100.043 127.216 100.487 128.084 101.15 128.727C101.813 129.364 102.681 129.682 103.755 129.682C104.829 129.682 105.82 129.364 106.728 128.727C107.636 128.084 108.405 127.216 109.035 126.122C109.665 125.022 110.092 123.782 110.318 122.403C110.543 121.025 110.543 119.788 110.318 118.695C110.092 117.594 109.652 116.726 108.995 116.089C108.339 115.446 107.467 115.125 106.38 115.125C105.306 115.125 104.312 115.446 103.397 116.089C102.483 116.726 101.714 117.594 101.091 118.695C100.467 119.788 100.043 121.025 99.8178 122.403ZM117.964 130.318C117.129 130.318 116.386 130.146 115.737 129.801C115.094 129.456 114.61 128.953 114.285 128.29C113.967 127.627 113.881 126.818 114.027 125.864C114.119 125.347 114.285 124.863 114.524 124.412C114.769 123.955 115.13 123.54 115.608 123.169C116.092 122.798 116.731 122.48 117.527 122.214C118.322 121.949 119.316 121.747 120.51 121.608C121.225 121.528 121.905 121.436 122.548 121.33C123.191 121.223 123.725 121.064 124.149 120.852C124.573 120.64 124.818 120.335 124.885 119.938L125.044 119.023C125.243 117.849 125.024 116.908 124.387 116.199C123.751 115.483 122.777 115.125 121.464 115.125C120.39 115.125 119.393 115.367 118.471 115.851C117.556 116.335 116.87 116.994 116.413 117.83L115.856 117.591C116.201 116.955 116.658 116.404 117.228 115.94C117.805 115.476 118.455 115.118 119.177 114.866C119.906 114.615 120.669 114.489 121.464 114.489C122.24 114.489 122.916 114.605 123.493 114.837C124.069 115.062 124.537 115.38 124.895 115.791C125.259 116.196 125.508 116.673 125.64 117.223C125.779 117.773 125.793 118.373 125.68 119.023L123.85 130H123.214L123.731 126.898H123.652C123.227 127.587 122.717 128.19 122.12 128.707C121.53 129.218 120.881 129.616 120.172 129.901C119.469 130.179 118.733 130.318 117.964 130.318ZM117.964 129.682C118.932 129.682 119.86 129.423 120.748 128.906C121.643 128.383 122.405 127.657 123.035 126.729C123.672 125.794 124.089 124.71 124.288 123.477L124.686 121.17C124.48 121.31 124.235 121.432 123.95 121.538C123.672 121.644 123.36 121.741 123.015 121.827C122.677 121.906 122.309 121.976 121.912 122.036C121.52 122.095 121.106 122.152 120.669 122.205C119.277 122.364 118.163 122.606 117.328 122.93C116.493 123.255 115.869 123.663 115.458 124.153C115.047 124.644 114.782 125.214 114.663 125.864C114.484 127.017 114.706 127.942 115.329 128.638C115.952 129.334 116.831 129.682 117.964 129.682ZM128.34 130L137.448 122.364L131.005 114.727H131.84L138.005 122.045H138.601L139.834 114.727H140.471L139.238 122.045H139.715L148.326 114.727H149.3L140.311 122.364L146.874 130H146.039L139.755 122.682H139.158L137.925 130H137.289L138.522 122.682H138.044L129.334 130H128.34ZM156.432 130.318C155.093 130.318 153.982 129.97 153.101 129.274C152.219 128.578 151.603 127.634 151.251 126.44C150.9 125.247 150.85 123.902 151.102 122.403C151.354 120.905 151.855 119.56 152.604 118.366C153.353 117.173 154.261 116.229 155.328 115.533C156.395 114.837 157.532 114.489 158.739 114.489C159.627 114.489 160.416 114.681 161.105 115.065C161.801 115.443 162.375 115.967 162.825 116.636C163.283 117.299 163.598 118.068 163.77 118.943C163.942 119.812 163.949 120.74 163.79 121.727L163.67 122.364H151.42L151.54 121.727H163.153C163.352 120.508 163.289 119.401 162.964 118.406C162.646 117.405 162.119 116.61 161.384 116.02C160.654 115.423 159.773 115.125 158.739 115.125C157.691 115.125 156.684 115.437 155.716 116.06C154.748 116.683 153.913 117.531 153.21 118.605C152.508 119.679 152.03 120.892 151.778 122.244L151.739 122.284C151.513 123.623 151.536 124.853 151.808 125.973C152.08 127.093 152.604 127.991 153.379 128.668C154.155 129.344 155.186 129.682 156.472 129.682C157.4 129.682 158.215 129.516 158.918 129.185C159.627 128.853 160.217 128.472 160.688 128.041C161.165 127.61 161.523 127.242 161.761 126.938L162.199 127.295C161.92 127.68 161.519 128.107 160.996 128.578C160.472 129.049 159.829 129.456 159.067 129.801C158.304 130.146 157.426 130.318 156.432 130.318ZM178.717 122.045L178.618 122.682H168.535L168.635 122.045H178.717ZM170.066 114.727L167.541 130H166.904L169.43 114.727H170.066ZM180.268 114.727L177.743 130H177.106L179.632 114.727H180.268ZM183.984 129.364L195.797 114.727H196.831L194.286 130H193.649L196.075 115.364L184.263 130H183.229L185.774 114.727H186.411L183.984 129.364ZM205.377 130.318C204.038 130.318 202.928 129.97 202.046 129.274C201.165 128.578 200.548 127.634 200.197 126.44C199.845 125.247 199.796 123.902 200.048 122.403C200.299 120.905 200.8 119.56 201.549 118.366C202.298 117.173 203.206 116.229 204.273 115.533C205.341 114.837 206.478 114.489 207.684 114.489C208.572 114.489 209.361 114.681 210.05 115.065C210.746 115.443 211.32 115.967 211.771 116.636C212.228 117.299 212.543 118.068 212.715 118.943C212.888 119.812 212.894 120.74 212.735 121.727L212.616 122.364H200.366L200.485 121.727H212.099C212.298 120.508 212.235 119.401 211.91 118.406C211.592 117.405 211.065 116.61 210.329 116.02C209.6 115.423 208.718 115.125 207.684 115.125C206.637 115.125 205.629 115.437 204.661 116.06C203.693 116.683 202.858 117.531 202.156 118.605C201.453 119.679 200.976 120.892 200.724 122.244L200.684 122.284C200.459 123.623 200.482 124.853 200.754 125.973C201.025 127.093 201.549 127.991 202.325 128.668C203.1 129.344 204.131 129.682 205.417 129.682C206.345 129.682 207.16 129.516 207.863 129.185C208.572 128.853 209.162 128.472 209.633 128.041C210.11 127.61 210.468 127.242 210.707 126.938L211.144 127.295C210.866 127.68 210.465 128.107 209.941 128.578C209.417 129.049 208.774 129.456 208.012 129.801C207.25 130.146 206.371 130.318 205.377 130.318ZM229.134 130.318C227.927 130.318 226.9 129.97 226.051 129.274C225.21 128.578 224.606 127.627 224.242 126.42C223.884 125.214 223.831 123.848 224.083 122.324C224.335 120.839 224.832 119.507 225.574 118.327C226.323 117.14 227.225 116.205 228.279 115.523C229.339 114.833 230.46 114.489 231.64 114.489C232.859 114.489 233.89 114.84 234.732 115.543C235.58 116.245 236.184 117.2 236.542 118.406C236.906 119.613 236.969 120.972 236.73 122.483C236.479 123.968 235.978 125.304 235.229 126.49C234.48 127.67 233.575 128.605 232.515 129.294C231.454 129.977 230.327 130.318 229.134 130.318ZM229.134 129.682C230.234 129.682 231.272 129.364 232.246 128.727C233.221 128.084 234.049 127.209 234.732 126.102C235.415 124.989 235.869 123.729 236.094 122.324C236.319 120.958 236.276 119.732 235.965 118.645C235.653 117.558 235.126 116.699 234.384 116.07C233.641 115.44 232.74 115.125 231.679 115.125C230.592 115.125 229.561 115.45 228.587 116.099C227.613 116.742 226.781 117.621 226.091 118.734C225.402 119.841 224.944 121.091 224.719 122.483C224.48 123.848 224.517 125.075 224.828 126.162C225.147 127.249 225.677 128.107 226.419 128.737C227.168 129.367 228.073 129.682 229.134 129.682ZM240.23 115.364L240.33 114.727H251.307L251.208 115.364H246.077L243.711 130H243.074L245.441 115.364H240.23ZM257.775 130.318C256.516 130.318 255.462 129.97 254.613 129.274C253.771 128.578 253.178 127.634 252.833 126.44C252.489 125.241 252.439 123.895 252.684 122.403C252.93 120.899 253.427 119.55 254.176 118.357C254.925 117.163 255.84 116.222 256.92 115.533C258.007 114.837 259.167 114.489 260.4 114.489C261.328 114.489 262.14 114.687 262.836 115.085C263.532 115.476 264.076 116.027 264.467 116.736C264.858 117.438 265.054 118.254 265.054 119.182H264.377C264.377 117.936 264.013 116.948 263.284 116.219C262.561 115.49 261.6 115.125 260.4 115.125C259.28 115.125 258.223 115.443 257.228 116.08C256.241 116.709 255.399 117.571 254.703 118.665C254.013 119.759 253.553 121.005 253.321 122.403C253.095 123.756 253.125 124.982 253.41 126.082C253.702 127.183 254.219 128.058 254.961 128.707C255.704 129.357 256.642 129.682 257.775 129.682C258.604 129.682 259.396 129.509 260.152 129.165C260.907 128.82 261.57 128.336 262.14 127.713C262.71 127.09 263.125 126.367 263.383 125.545H264.059C263.748 126.52 263.274 127.365 262.637 128.081C262.001 128.79 261.262 129.34 260.42 129.732C259.585 130.123 258.703 130.318 257.775 130.318ZM267.544 135.727C267.286 135.727 267.017 135.691 266.739 135.618C266.467 135.552 266.192 135.455 265.914 135.33L266.232 134.773C266.815 135.058 267.382 135.154 267.932 135.061C268.489 134.975 269.013 134.713 269.503 134.276C269.994 133.845 270.435 133.255 270.826 132.506L272.019 130.239L269.076 114.727H269.712L272.476 129.205H272.556L280.132 114.727H280.848L271.402 132.784C271.064 133.427 270.686 133.967 270.269 134.405C269.858 134.842 269.42 135.17 268.956 135.389C268.492 135.615 268.022 135.727 267.544 135.727ZM283.844 115.364L283.943 114.727H294.92L294.821 115.364H289.69L287.324 130H286.688L289.054 115.364H283.844ZM301.388 130.318C300.129 130.318 299.075 129.97 298.227 129.274C297.385 128.578 296.791 127.634 296.447 126.44C296.102 125.241 296.052 123.895 296.298 122.403C296.543 120.899 297.04 119.55 297.789 118.357C298.538 117.163 299.453 116.222 300.533 115.533C301.621 114.837 302.781 114.489 304.013 114.489C304.942 114.489 305.754 114.687 306.45 115.085C307.146 115.476 307.689 116.027 308.08 116.736C308.471 117.438 308.667 118.254 308.667 119.182H307.991C307.991 117.936 307.626 116.948 306.897 116.219C306.174 115.49 305.213 115.125 304.013 115.125C302.893 115.125 301.836 115.443 300.842 116.08C299.854 116.709 299.012 117.571 298.316 118.665C297.627 119.759 297.166 121.005 296.934 122.403C296.709 123.756 296.738 124.982 297.023 126.082C297.315 127.183 297.832 128.058 298.575 128.707C299.317 129.357 300.255 129.682 301.388 129.682C302.217 129.682 303.009 129.509 303.765 129.165C304.521 128.82 305.183 128.336 305.754 127.713C306.324 127.09 306.738 126.367 306.996 125.545H307.673C307.361 126.52 306.887 127.365 306.251 128.081C305.614 128.79 304.875 129.34 304.033 129.732C303.198 130.123 302.317 130.318 301.388 130.318ZM311.416 130L313.962 114.727H319.53C321.081 114.727 322.251 115.052 323.04 115.702C323.829 116.345 324.124 117.246 323.925 118.406C323.779 119.261 323.428 119.981 322.871 120.564C322.321 121.147 321.552 121.601 320.564 121.926C321.167 122.072 321.668 122.327 322.065 122.692C322.47 123.05 322.751 123.494 322.911 124.024C323.076 124.548 323.103 125.134 322.99 125.784C322.851 126.633 322.536 127.375 322.045 128.011C321.562 128.641 320.948 129.132 320.206 129.483C319.464 129.828 318.628 130 317.7 130H311.416ZM312.172 129.364H317.82C318.973 129.364 319.974 129.026 320.822 128.349C321.678 127.673 322.188 126.805 322.354 125.744C322.519 124.737 322.344 123.918 321.827 123.288C321.31 122.659 320.557 122.344 319.57 122.344H313.325L312.172 129.364ZM313.425 121.707H318.675C319.45 121.707 320.17 121.558 320.832 121.26C321.502 120.955 322.059 120.541 322.503 120.017C322.954 119.493 323.229 118.903 323.328 118.247C323.467 117.312 323.205 116.6 322.543 116.109C321.886 115.612 320.842 115.364 319.411 115.364H314.479L313.425 121.707ZM326.552 135.727C326.294 135.727 326.025 135.691 325.747 135.618C325.475 135.552 325.2 135.455 324.922 135.33L325.24 134.773C325.823 135.058 326.39 135.154 326.94 135.061C327.497 134.975 328.02 134.713 328.511 134.276C329.002 133.845 329.442 133.255 329.833 132.506L331.027 130.239L328.083 114.727H328.72L331.484 129.205H331.564L339.14 114.727H339.856L330.41 132.784C330.072 133.427 329.694 133.967 329.277 134.405C328.866 134.842 328.428 135.17 327.964 135.389C327.5 135.615 327.029 135.727 326.552 135.727ZM346.58 130.318C345.241 130.318 344.131 129.97 343.249 129.274C342.368 128.578 341.751 127.634 341.4 126.44C341.049 125.247 340.999 123.902 341.251 122.403C341.503 120.905 342.003 119.56 342.752 118.366C343.501 117.173 344.409 116.229 345.477 115.533C346.544 114.837 347.681 114.489 348.887 114.489C349.775 114.489 350.564 114.681 351.254 115.065C351.95 115.443 352.523 115.967 352.974 116.636C353.431 117.299 353.746 118.068 353.918 118.943C354.091 119.812 354.097 120.74 353.938 121.727L353.819 122.364H341.569L341.688 121.727H353.302C353.501 120.508 353.438 119.401 353.113 118.406C352.795 117.405 352.268 116.61 351.532 116.02C350.803 115.423 349.921 115.125 348.887 115.125C347.84 115.125 346.832 115.437 345.864 116.06C344.897 116.683 344.061 117.531 343.359 118.605C342.656 119.679 342.179 120.892 341.927 122.244L341.887 122.284C341.662 123.623 341.685 124.853 341.957 125.973C342.228 127.093 342.752 127.991 343.528 128.668C344.303 129.344 345.334 129.682 346.62 129.682C347.548 129.682 348.363 129.516 349.066 129.185C349.775 128.853 350.365 128.472 350.836 128.041C351.313 127.61 351.671 127.242 351.91 126.938L352.347 127.295C352.069 127.68 351.668 128.107 351.144 128.578C350.621 129.049 349.978 129.456 349.215 129.801C348.453 130.146 347.575 130.318 346.58 130.318ZM357.918 115.364L358.017 114.727H368.995L368.895 115.364H363.765L361.398 130H360.762L363.128 115.364H357.918Z" fill="black"/>
</svg>
